<svg xmlns="http://www.w3.org/2000/svg" width="73" height="73" viewBox="0 0 73 73">
  <g id="Settings" transform="translate(-1777 -969)">
    <g id="Ellipse_2" data-name="Ellipse 2" transform="translate(1777 969)" fill="none" stroke="#f8f7f2" stroke-width="4">
      <circle cx="36.5" cy="36.5" r="36.5" stroke="none"/>
      <circle cx="36.5" cy="36.5" r="34.5" fill="none"/>
    </g>
    <g id="Icon_feather-settings" data-name="Icon feather-settings" transform="translate(1789.494 981.494)">
      <path id="Path_1" data-name="Path 1" d="M26.049,19.774A6.274,6.274,0,1,1,19.774,13.5,6.274,6.274,0,0,1,26.049,19.774Z" transform="translate(4.731 4.731)" fill="none" stroke="#f8f7f2" stroke-linecap="round" stroke-linejoin="round" stroke-width="3"/>
      <path id="Path_2" data-name="Path 2" d="M39.982,30.78a3.451,3.451,0,0,0,.69,3.806l.125.125a4.185,4.185,0,1,1-5.919,5.919l-.125-.125a3.479,3.479,0,0,0-5.9,2.468v.356a4.183,4.183,0,0,1-8.366,0V43.14a3.451,3.451,0,0,0-2.259-3.158,3.451,3.451,0,0,0-3.806.69L14.3,40.8a4.185,4.185,0,1,1-5.919-5.919l.125-.125a3.479,3.479,0,0,0-2.468-5.9H5.683a4.183,4.183,0,0,1,0-8.366h.188a3.451,3.451,0,0,0,3.158-2.259,3.451,3.451,0,0,0-.69-3.806L8.213,14.3a4.185,4.185,0,1,1,5.919-5.919l.125.125a3.451,3.451,0,0,0,3.806.69h.167a3.451,3.451,0,0,0,2.091-3.158V5.683a4.183,4.183,0,0,1,8.366,0v.188a3.479,3.479,0,0,0,5.9,2.468l.125-.125a4.185,4.185,0,1,1,5.919,5.919l-.125.125a3.451,3.451,0,0,0-.69,3.806v.167a3.451,3.451,0,0,0,3.158,2.091h.356a4.183,4.183,0,0,1,0,8.366H43.14a3.451,3.451,0,0,0-3.158,2.091Z" transform="translate(0 0)" fill="none" stroke="#f8f7f2" stroke-linecap="round" stroke-linejoin="round" stroke-width="3"/>
    </g>
  </g>
</svg>
