<svg xmlns="http://www.w3.org/2000/svg" width="73" height="73" viewBox="0 0 73 73">
  <g id="icon_random-grid" transform="translate(-1777 -969)">
    <g id="Ellipse_2" data-name="Ellipse 2" transform="translate(1777 969)" fill="none" stroke="#f8f7f2" stroke-width="4">
      <circle cx="36.5" cy="36.5" r="36.5" stroke="none"/>
      <circle cx="36.5" cy="36.5" r="34.5" fill="none"/>
    </g>
    <path id="Icon_awesome-random" data-name="Icon awesome-random" d="M31.059,22.365a1.476,1.476,0,0,1,0,2.088l-4.921,4.92a1.477,1.477,0,0,1-2.52-1.044V25.869H20a.738.738,0,0,1-.54-.234l-4.34-4.65L18.4,17.47l3.246,3.478h1.968V18.489a1.477,1.477,0,0,1,2.52-1.044l4.921,4.919ZM.738,11.107H5.9l3.246,3.478,3.28-3.515-4.34-4.65a.738.738,0,0,0-.54-.234H.738A.738.738,0,0,0,0,6.925v3.444A.738.738,0,0,0,.738,11.107Zm22.881,0v2.459a1.477,1.477,0,0,0,2.52,1.044l4.921-4.92a1.476,1.476,0,0,0,0-2.088L26.139,2.684a1.477,1.477,0,0,0-2.52,1.044V6.186H20a.738.738,0,0,0-.54.234L5.9,20.948H.738A.738.738,0,0,0,0,21.686v3.444a.738.738,0,0,0,.738.738H7.552a.738.738,0,0,0,.54-.234L21.651,11.107Z" transform="translate(1798.254 989.972)" fill="#f8f7f2"/>
  </g>
</svg>
