<svg xmlns="http://www.w3.org/2000/svg" width="73" height="73" viewBox="0 0 73 73">
  <g id="icon_clear-grid" transform="translate(-1777 -969)">
    <g id="Ellipse_2" data-name="Ellipse 2" transform="translate(1777 969)" fill="none" stroke="#f8f7f2" stroke-width="4">
      <circle cx="36.5" cy="36.5" r="36.5" stroke="none"/>
      <circle cx="36.5" cy="36.5" r="34.5" fill="none"/>
    </g>
    <path id="Icon_material-layers-clear" data-name="Icon material-layers-clear" d="M35.891,27.336l2.2-1.7L35.448,23l-2.2,1.7ZM35.06,18.62l3.029-2.345L21.468,3.347,16.094,7.539,30.628,22.092,35.06,18.62ZM5.345,1.5,3,3.845l7.793,7.793L4.847,16.274l3.01,2.345L21.468,29.2l3.878-3.01,2.641,2.641-6.519,5.06L7.857,23.31l-3.01,2.327L21.468,38.565l9.142-7.11,6.981,6.981,2.345-2.345Z" transform="translate(1792.532 985.52)" fill="#f8f7f2"/>
  </g>
</svg>
